<?xml version="1.0" standalone="no"?>
<!DOCTYPE svg PUBLIC "-//W3C//DTD SVG 20010904//EN"
 "http://www.w3.org/TR/2001/REC-SVG-20010904/DTD/svg10.dtd">
<svg version="1.0" xmlns="http://www.w3.org/2000/svg"
 width="225.000000pt" height="225.000000pt" viewBox="0 0 225.000000 225.000000"
 preserveAspectRatio="xMidYMid meet">

<g transform="translate(0.000000,225.000000) scale(0.100000,-0.100000)"
fill="#000000" stroke="none">
<path d="M532 2124 c-198 -53 -365 -219 -417 -414 -12 -45 -15 -150 -15 -570
0 -318 4 -532 11 -560 35 -152 166 -315 309 -383 128 -62 133 -62 700 -62
l515 0 75 27 c41 14 98 39 125 54 74 42 174 147 217 230 66 126 68 142 68 685
0 299 -4 508 -11 545 -36 204 -217 394 -425 448 -87 23 -1069 23 -1152 0z
m1053 -159 c139 -37 252 -130 318 -263 l42 -85 3 -461 c3 -438 2 -463 -18
-527 -46 -153 -173 -278 -329 -323 -46 -14 -122 -16 -492 -16 -408 0 -441 1
-501 20 -172 53 -306 201 -337 374 -14 76 -15 823 -1 897 33 177 182 335 361
383 82 22 870 22 954 1z"/>
<path d="M1589 1731 c-60 -60 -23 -151 61 -151 56 0 90 34 90 89 0 32 -6 44
-31 65 -41 35 -83 34 -120 -3z"/>
<path d="M974 1666 c-179 -41 -334 -179 -405 -361 -20 -52 -23 -77 -23 -190 0
-118 2 -136 27 -199 152 -384 635 -489 924 -201 219 219 227 557 19 782 -108
117 -228 172 -386 179 -59 2 -118 -1 -156 -10z m291 -215 c76 -37 147 -111
183 -189 23 -48 27 -70 27 -147 0 -77 -4 -99 -27 -147 -37 -80 -107 -152 -187
-191 -60 -29 -74 -32 -161 -32 -85 0 -101 3 -155 29 -76 38 -149 110 -183 184
-24 50 -27 69 -27 157 0 89 3 106 28 157 30 60 90 127 148 164 100 63 243 69
354 15z"/>
</g>
</svg>
